/* XPM */
static char *result[] = {
/* columns rows colors chars-per-pixel */
"32 32 5 1 ",
"  c #D77643",
". c #FDAE35",
"X c #D38D5C",
"o c #E4A570",
"O c #EAB585",
/* pixels */
"oooooooooooooooooooooooooooooooo",
"oooooooooooooooooooooooooooooooo",
"oooooooooooooooooooooooooooooooo",
"oooooooooooooooooooooooooooooooo",
"oooooooooooooooooooooooooooooooo",
"oooooooooooooooooooooooooooooooo",
"ooOOOooOOOOOOOOOooooOOOOoooOOOOo",
"XXXXoXXXXXXXXoXXXXXXXXoooXXXXXoX",
"ooooooooo      ooooooooooooooooo",
"oooooo......    oooooooooooooooo",
"oooooo.......              ooooo",
"ooooo...................   ooooo",
"ooooo...................   ooooo",
"ooooo...................   ooooo",
"ooooo...................   ooooo",
"OOOOO...................  OOOoOo",
"ooooX...................  XooXXX",
"ooooo...................  oooooo",
"ooooo...................  oooooo",
"ooooo...................  oooooo",
"ooooo................... ooooooo",
"ooooo................... ooooooo",
"ooooo................... ooooooo",
"ooooo...................oooooooo",
"oOooOOOOOOOOoOooooOOOOOoOOOOOOOo",
"oooXXXXXXXXooXXXXXXXXXXXXXXoXXXX",
"oooooooooooooooooooooooooooooooo",
"oooooooooooooooooooooooooooooooo",
"oooooooooooooooooooooooooooooooo",
"oooooooooooooooooooooooooooooooo",
"oooooooooooooooooooooooooooooooo",
"oooooooooooooooooooooooooooooooo"
};
