/* XPM */
static char *result[] = {
/* columns rows colors chars-per-pixel */
"32 32 9 1 ",
"  c #D38D5C",
". c #E4A570",
"X c #2672AA",
"o c #0099DC",
"O c #2EE8F7",
"+ c #8B9BB5",
"@ c #EAB585",
"# c #C0CCDC",
"$ c #ECF0F1",
/* pixels */
"................................",
"................................",
"................................",
"................................",
".............+..+..+............",
"............+..+..+.............",
"..@@@..@@@@@+@@+..+.@@@@...@@@@.",
"    .        +  +  +  ...     . ",
"..............+..+..+...........",
"..............+..+..+...........",
".............+..+..+............",
"................................",
"........XXXXXXoooooooOooo.......",
".....###XXXXXXoooooooOooo.......",
"....####XXXXXXoooooooOooo.......",
"@@@@##@@XXXXXXoooooooOooo@@@@.@.",
"....##  XXXXXXoooooooOooo  ..   ",
"....##..XXXXXXooooooOoooo.......",
".....##..XXXXXooooooOooo........",
".....####XXXXXoooooOoooo........",
".......###XXXXXoooOoooo.........",
"...........XXXXooooooo..........",
"...........oXXXXXXXXX...........",
".......$$$$$$$$$$$$$$$$$$$......",
".@..@@@@+++++++++++++++++@@@@@@.",
"...       +++++++++++++    .    ",
"................................",
"................................",
"................................",
"................................",
"................................",
"................................"
};
