/* XPM */
static char *result[] = {
/* columns rows colors chars-per-pixel */
"32 32 3 1 ",
"  c #D38D5C",
". c #E4A570",
"X c #EAB585",
/* pixels */
"................................",
"................................",
"................................",
"................................",
"................................",
"................................",
"..XXX..XXXXXXXXX....XXXX...XXXX.",
"    .        .        ...     . ",
"................................",
"................................",
"................................",
"................................",
"................................",
"................................",
"................................",
"XXXXXXXXXX..X...XXXXX.XXXXXXX.X.",
"....         ..........    ..   ",
"................................",
"................................",
"................................",
"................................",
"................................",
"................................",
"................................",
".X..XXXXXXXX.X....XXXXX.XXXXXXX.",
"...        ..              .    ",
"................................",
"................................",
"................................",
"................................",
"................................",
"................................"
};
