/* XPM */
static char *result[] = {
/* columns rows colors chars-per-pixel */
"32 32 6 1 ",
"  c #3A4467",
". c #D38D5C",
"X c #E4A570",
"o c #8B9BB5",
"O c #EAB585",
"+ c #ECF0F1",
/* pixels */
"XXXXXXXXXXXXXXXXXXXXXXXXXXXXXXXX",
"XXXXXXXXXXXXXXXXXXXXXXXXXXXXXXXX",
"XXXXXXXXXXXXXXXXXXXXXXXXXXXXXXXX",
"XXXXXXXXXXXXXXXXXXXXXXXXXXXXXXXX",
"XXXXXXXXXXXXXXXXXXX   XXXXXXXXXX",
"XXXXXXXXXXXXXXXXXX XXX XXXXXXXXX",
"XXOOOXXOO   OOOOXX XOO OXXXOOOOX",
"....X... ... X.... ...XXX.....X.",
"XXXXXXXX XXX XXXXX XXXXXXXXXXXXX",
"XXXXXXXoooooooXXXoooooooXXXXXXXX",
"XXXXXXXoooooooXXXoooooooXXXXXXXX",
"XXXXXXXooo oooXXXooo oooXXXXXXXX",
"XXXXXXXooo oooXXXooo oooXXXXXXXX",
"XXXXXXXoooooooXXXoooooooXXXXXXXX",
"XXXXXXXoooooooXXXoooooooXXXXXXXX",
"OOOOOOOoooooooXXOoooooooOOOOOXOX",
"XXXX.........XXXXXXXXXX....XX...",
"XXXXXXXXXXXXXXXXXXXXXXXXXXXXXXXX",
"XXXXXXXXXXXXXXXXXXXXXXXXXXXXXXXX",
"XXXXXXXXXXXXXXXXXXXXXXXXXXXXXXXX",
"X                              X",
"X ++++++++++++++++++++++++++++ X",
"X ++ + ++ + ++ + ++ + ++++++++ X",
"X +++ ++++ ++++ ++++ +++++++++ X",
"X ++ + ++ + ++ + ++ + ++++++++ X",
"X ++++++++++++++++++++++++++++ .",
"X                              X",
"XXXXXXXXXXXXXXXXXXXXXXXXXXXXXXXX",
"XXXXXXXXXXXXXXXXXXXXXXXXXXXXXXXX",
"XXXXXXXXXXXXXXXXXXXXXXXXXXXXXXXX",
"XXXXXXXXXXXXXXXXXXXXXXXXXXXXXXXX",
"XXXXXXXXXXXXXXXXXXXXXXXXXXXXXXXX"
};
