/* XPM */
static char *result[] = {
/* columns rows colors chars-per-pixel */
"32 32 9 1 ",
"  c #F77622",
". c #D38D5C",
"X c #E4A570",
"o c #104E89",
"O c #628DD1",
"+ c #8B9BB5",
"@ c #EAB585",
"# c #C0CCDC",
"$ c #ECF0F1",
/* pixels */
"XXXXXXXXXXXXXXXXXXXXXXXXXXXXXXXX",
"XXXXXXXXXXXXXXXXXXXXXXXXXXXXXXXX",
"XXXXXXXXXXXXXXXXXXXXXXXXXXXXXXXX",
"XXXXXXXXXXXXXXXXXXXXXXXXXXXXXXXX",
"XXXXXXXXXXXXXXXXXXXXXXXXXXXXXXXX",
"XXXXXXXXXXXXXXXXXXXXXXXXXXXXXXXX",
"XX@@@XX@@@@@@@@@XXXX@@@@XXX@@@@X",
"....X........X........XXX.....X.",
"XXXXXX$$$$$$$$$$$$$$$$$$$$XXXXXX",
"XXXXXX$OOOOOOOOOOOOOOOOOO$XXXXXX",
"XXXXXX$O#OOOOOOOOOOOOOOOO$XXXXXX",
"XXXXXX$OOOOooooooooOOOOOO$XXXXXX",
"XXXXXX$O#OO$$$$$$$$OOOOOO$XXXXXX",
"XXXXXX$OOOO$ $ $ $$+###OO$XXXXXX",
"XXXXXX$O#OO$$$$$$$$+###OO$XXXXXX",
"@@@@@@$OOOO$ $$$$$$+###OO$@@@X@X",
"XXXX..$OOOO$$$$$$$$+###OO$.XX...",
"XXXXXX$OOOO$$$$$$$$+###OO$XXXXXX",
"XXXXXX$OOOOOOOOO++++###OO$XXXXXX",
"XXXXXX$OOOOOOOOO#######OO$XXXXXX",
"XXXXXX$OOOOOOOOOOOOOOOOOO$XXXXXX",
"XXXXXX$$$$$$$$$$$$$$$$$$$$XXXXXX",
"XXXX++++++++++++++++++++++++XXXX",
"XXXXXXXXXXXXXXXXXXXXXXXXXXXXXXXX",
"X@XX@@@@@@@@X@XXXX@@@@@X@@@@@@@X",
"XXX........XX..............X....",
"XXXXXXXXXXXXXXXXXXXXXXXXXXXXXXXX",
"XXXXXXXXXXXXXXXXXXXXXXXXXXXXXXXX",
"XXXXXXXXXXXXXXXXXXXXXXXXXXXXXXXX",
"XXXXXXXXXXXXXXXXXXXXXXXXXXXXXXXX",
"XXXXXXXXXXXXXXXXXXXXXXXXXXXXXXXX",
"XXXXXXXXXXXXXXXXXXXXXXXXXXXXXXXX"
};
