/* XPM */
static char *result[] = {
/* columns rows colors chars-per-pixel */
"32 32 12 1 ",
"  c #252B43",
". c #3A4467",
"X c #A32732",
"o c #F77622",
"O c #E43D44",
"+ c #F6757A",
"@ c #FDAE35",
"# c #D38D5C",
"$ c #E4A570",
"% c #EAB585",
"& c #C0CCDC",
"* c #ECF0F1",
/* pixels */
"$$$$$$$$$..............$$$$$$$$$",
"$$$$$$$$$..............$$$$$$$$$",
"$$$$$$$..................$$$$$$$",
"$$$$$$$..................$$$$$$$",
"$$$$$$$..................$$$$$$$",
"$$$$$$  &..............&  $$$$$$",
"$$%%%$   ..............   $%%%%$",
"####$#    &&&&&&&&..&&    ####$#",
"$$$$$$                    $$$$$$",
"$$$$$$                    $$$$$$",
"$$$$$$      @             $$$$$$",
"$$$$$$      @             $$$$$$",
"$$$$$$      @     @       $$$$$$",
"$$$$$$     @@@@@@@@@@     $$$$$$",
"$$$$$$     @  @@@@  @     $$$$$$",
"%%%%%%      @@ @@ @@      %%%$%$",
"$$$$##     +++@**@+++     #$$###",
"$$$$$$$    @@@@@@@@@@    $$$$$$$",
"$$$$$$$$   OOooooooOO   $$$$$$$$",
"$$$$$$$$$@OOOOooooOOOO@$$$$$$$$$",
"$$$$$$$$@@OOOOOOOOOOOO@@$$$$$$$$",
"$$$$$$$$@@OOOOOOOOOOOO@@$$$$$$$$",
"$$$$$$$$@@XOOOOOOOOOOX@@$$$$$$$$",
"$$$$$$$O@@XXOOOOOOOOXX@@O$$$$$$$",
"$%$$%%%OO@OXXXXXXXXXXO@OO%%%%%%$",
"$$$####OOOOOXXXXXXXXOOOOO##$####",
"$$$$$$$OOOOOOOOOOOOOOOOOO$$$$$$$",
"$$$$$$$OOOOOOOOOOOOOOOOO$$$$$$$$",
"$$$$$$$$$@@OOOOOOOOOO@$$$$$$$$$$",
"$$$$$$$$$@@@@@$$$@@@@@$$$$$$$$$$",
"$$$$$$$$$$@@@@$$$$@@@@$$$$$$$$$$",
"$$$$$$$$$$****$$$$****$$$$$$$$$$"
};
